<svg width="218" height="185" viewBox="0 0 218 185" fill="none" xmlns="http://www.w3.org/2000/svg">
<g filter="url(#filter0_d)">
<path d="M13 33C13 21.9543 21.9543 13 33 13H176C187.046 13 196 21.9543 196 33V125C196 136.046 187.046 145 176 145H98.1968C92.6498 145 87.352 147.304 83.5691 151.361L67.1197 169.002C62.7858 173.65 55 170.583 55 164.228V149C55 146.791 53.2091 145 51 145H33C21.9543 145 13 136.046 13 125V33Z" fill="white"/>
</g>
<g filter="url(#filter1_d)">
<path d="M205.349 50.2024C205.349 40.1495 197.2 32 187.147 32H75.2024C65.1495 32 57 40.1495 57 50.2023V120.804C57 130.856 65.1495 139.006 75.2024 139.006H135.419C140.468 139.006 145.289 141.103 148.732 144.795L160.271 157.17C164.216 161.401 171.302 158.609 171.302 152.826V142.646C171.302 140.636 172.932 139.006 174.942 139.006H187.147C197.2 139.006 205.349 130.856 205.349 120.804V50.2024Z" fill="#22F200"/>
</g>
<path d="M172.708 87.3573L176.58 86.6839L175.57 83.4848L171.866 85.0001L172.371 80.9592H169.004L169.509 85.0001L165.805 83.4848L164.794 86.6839L168.667 87.3573L165.805 90.388L168.498 92.4085L170.687 88.8727L172.876 92.4085L175.57 90.388L172.708 87.3573ZM157.878 87.3573L161.75 86.6839L160.74 83.4848L157.036 85.0001L157.541 80.9592H154.174L154.679 85.0001L150.975 83.4848L149.964 86.6839L153.837 87.3573L150.975 90.388L153.669 92.4085L155.857 88.8727L158.046 92.4085L160.74 90.388L157.878 87.3573ZM143.048 87.3573L146.921 86.6839L145.91 83.4848L142.206 85.0001L142.711 80.9592H139.344L139.849 85.0001L136.145 83.4848L135.135 86.6839L139.007 87.3573L136.145 90.388L138.839 92.4085L141.028 88.8727L143.216 92.4085L145.91 90.388L143.048 87.3573ZM128.218 87.3573L132.091 86.6839L131.081 83.4848L127.376 85.0001L127.881 80.9592H124.514L125.019 85.0001L121.315 83.4848L120.305 86.6839L124.177 87.3573L121.315 90.388L124.009 92.4085L126.198 88.8727L128.387 92.4085L131.081 90.388L128.218 87.3573ZM113.388 87.3573L117.261 86.6839L116.251 83.4848L112.546 85.0001L113.052 80.9592H109.684L110.189 85.0001L106.485 83.4848L105.475 86.6839L109.347 87.3573L106.485 90.388L109.179 92.4085L111.368 88.8727L113.557 92.4085L116.251 90.388L113.388 87.3573ZM98.5585 87.3573L102.431 86.6839L101.421 83.4848L97.7166 85.0001L98.2217 80.9592H94.8543L95.3594 85.0001L91.6552 83.4848L90.645 86.6839L94.5175 87.3573L91.6552 90.388L94.3492 92.4085L96.538 88.8727L98.7268 92.4085L101.421 90.388L98.5585 87.3573Z" fill="white"/>
<defs>
<filter id="filter0_d" x="0" y="0" width="209" height="184.242" filterUnits="userSpaceOnUse" color-interpolation-filters="sRGB">
<feFlood flood-opacity="0" result="BackgroundImageFix"/>
<feColorMatrix in="SourceAlpha" type="matrix" values="0 0 0 0 0 0 0 0 0 0 0 0 0 0 0 0 0 0 127 0"/>
<feOffset/>
<feGaussianBlur stdDeviation="6.5"/>
<feColorMatrix type="matrix" values="0 0 0 0 0.871042 0 0 0 0 0.906354 0 0 0 0 0.941667 0 0 0 1 0"/>
<feBlend mode="normal" in2="BackgroundImageFix" result="effect1_dropShadow"/>
<feBlend mode="normal" in="SourceGraphic" in2="effect1_dropShadow" result="shape"/>
</filter>
<filter id="filter1_d" x="45.1685" y="20.1685" width="172.012" height="150.872" filterUnits="userSpaceOnUse" color-interpolation-filters="sRGB">
<feFlood flood-opacity="0" result="BackgroundImageFix"/>
<feColorMatrix in="SourceAlpha" type="matrix" values="0 0 0 0 0 0 0 0 0 0 0 0 0 0 0 0 0 0 127 0"/>
<feOffset/>
<feGaussianBlur stdDeviation="5.91576"/>
<feColorMatrix type="matrix" values="0 0 0 0 0.871042 0 0 0 0 0.906354 0 0 0 0 0.941667 0 0 0 1 0"/>
<feBlend mode="normal" in2="BackgroundImageFix" result="effect1_dropShadow"/>
<feBlend mode="normal" in="SourceGraphic" in2="effect1_dropShadow" result="shape"/>
</filter>
</defs>
</svg>
